<svg id="Capa_1" enable-background="new 0 0 512 512" height="512" viewBox="0 0 512 512" width="512" xmlns="http://www.w3.org/2000/svg"><g><path d="m501.736 59.119c-5.521.135-9.888 4.721-9.752 10.242.342 13.991-4.917 27.143-14.808 37.035l-26.585 26.585-71.571-71.572 26.585-26.585c9.892-9.892 23.054-15.169 37.038-14.808 5.53.127 10.107-4.23 10.243-9.751.135-5.521-4.23-10.107-9.751-10.243-19.528-.489-37.87 6.857-51.671 20.659l-33.656 33.656c-.002.002-.003.003-.005.005l-295.004 295.003c-.988.988-1.723 2.131-2.211 3.35l-59.836 145.501c-1.535 3.732-.676 8.021 2.177 10.874 1.913 1.913 4.471 2.93 7.073 2.93 1.28 0 2.571-.246 3.801-.752l145.498-59.835c1.221-.488 2.365-1.224 3.354-2.212l295.003-295.002c.002-.002.003-.003.005-.005l33.656-33.656c13.8-13.8 21.137-32.149 20.66-51.666-.137-5.522-4.744-9.909-10.243-9.753zm-336.155 215.729 44.296-44.296v143.143l-44.296 44.296zm64.296-64.297 60.715-60.714-.007 143.15-60.707 60.707v-143.143zm80.716-80.715 44.288-44.288v143.143l-44.295 44.295zm-165.012 165.012v123.137l-61.569-61.569zm-72.17 79.251 64.49 64.49-109.536 45.045zm301.469-165.407v-123.138l61.569 61.569z"/><ellipse cx="484.247" cy="27.754" rx="10" ry="10" transform="matrix(.707 -.707 .707 .707 122.208 350.544)"/></g></svg>